# xmcd
#
# Track frame offsets:
# 150
# 3445
# 18070
# 36895
# 50745
# 71740
# 90955
# 108710
# 125160
# 144540
# 165645
# 180430
# 198175
# 218630
# 235235
#
# Disc length: 3373 seconds
#
#
# Revision: 0
# Processed by: cddbd v1.5.1PL0 Copyright (c) Steve Scherf et al.
# Submitted via: FreeRIP 2.942 
#
DISCID=c90d2b0f
DTITLE=100% CAIPIRA - 100% CAIPIRA
DYEAR=1900
DGENRE=Sertaneja
TTITLE0=100% Caipira
TTITLE1=Faz Isso Nâo Paixão
TTITLE2=Jeitão de Caboclo
TTITLE3=Melhor Laçada
TTITLE4=Eu e Meu Pai
TTITLE5=Vida Pelo Avesso
TTITLE6=Franguinho Na Panela
TTITLE7=O Ultimo Dos Carreiros
TTITLE8=Canga do Tempo
TTITLE9=Dia de Formatura
TTITLE10=Música da Saudade
TTITLE11=Retrato de Mãe
TTITLE12=Bate a Bota no Chão
TTITLE13=Agua no Leite
TTITLE14=Santa Luzia
EXTD=
EXTT0=
EXTT1=
EXTT2=
EXTT3=
EXTT4=
EXTT5=
EXTT6=
EXTT7=
EXTT8=
EXTT9=
EXTT10=
EXTT11=
EXTT12=
EXTT13=
EXTT14=
PLAYORDER=
